grf
version=1
nRows=15
nColumns=73
inDegrees=yes
endheader
time	ground_force_1_vx	ground_force_1_vy	ground_force_1_vz	ground_force_1_px	ground_force_1_py	ground_force_1_pz	ground_moment_1_mx	ground_moment_1_my	ground_moment_1_mz	ground_force_2_vx	ground_force_2_vy	ground_force_2_vz	ground_force_2_px	ground_force_2_py	ground_force_2_pz	ground_moment_2_mx	ground_moment_2_my	ground_moment_2_mz	ground_force_3_vx	ground_force_3_vy	ground_force_3_vz	ground_force_3_px	ground_force_3_py	ground_force_3_pz	ground_moment_3_mx	ground_moment_3_my	ground_moment_3_mz	ground_force_4_vx	ground_force_4_vy	ground_force_4_vz	ground_force_4_px	ground_force_4_py	ground_force_4_pz	ground_moment_4_mx	ground_moment_4_my	ground_moment_4_mz	ground_force_5_vx	ground_force_5_vy	ground_force_5_vz	ground_force_5_px	ground_force_5_py	ground_force_5_pz	ground_moment_5_mx	ground_moment_5_my	ground_moment_5_mz	ground_force_6_vx	ground_force_6_vy	ground_force_6_vz	ground_force_6_px	ground_force_6_py	ground_force_6_pz	ground_moment_6_mx	ground_moment_6_my	ground_moment_6_mz	ground_force_7_vx	ground_force_7_vy	ground_force_7_vz	ground_force_7_px	ground_force_7_py	ground_force_7_pz	ground_moment_7_mx	ground_moment_7_my	ground_moment_7_mz	ground_force_8_vx	ground_force_8_vy	ground_force_8_vz	ground_force_8_px	ground_force_8_py	ground_force_8_pz	ground_moment_8_mx	ground_moment_8_my	ground_moment_8_mz
3.148000	23.027749	107.769264	3.527292	0.720008	0.000000	0.321499	0.000000	-0.386138	-0.000000	80.235151	534.430317	-12.199737	0.234888	0.000000	0.420860	-0.000000	1.972034	0.000000	22.373726	105.097925	3.853758	0.738210	0.000000	0.330575	-0.000000	-0.342266	0.000000	80.233447	534.427352	-12.198263	0.232819	0.000000	0.419438	-0.000000	1.971689	0.000000	21.496847	92.725700	4.169311	0.759282	0.000000	0.323543	0.000000	-0.400874	-0.000000	78.532152	538.557363	-12.426117	0.237501	0.000000	0.421024	-0.000000	1.993920	0.000000	20.826241	90.665132	3.503237	0.731080	0.000000	0.319552	0.000000	-0.606067	-0.000000	78.889943	537.746116	-12.789742	0.241456	0.000000	0.421111	0.000000	2.011837	0.000000
3.149000	23.204272	113.372435	3.161877	0.725011	0.000000	0.322265	0.000000	-0.401613	-0.000000	80.943900	533.089963	-12.069270	0.233762	0.000000	0.420820	-0.000000	1.962817	0.000000	22.773449	110.722936	3.518406	0.739781	0.000000	0.329550	-0.000000	-0.365144	0.000000	80.941945	533.090598	-12.068598	0.231693	0.000000	0.419398	-0.000000	1.962626	0.000000	22.104522	98.725305	3.946325	0.755469	0.000000	0.323855	0.000000	-0.431864	-0.000000	79.299603	537.347018	-12.332195	0.236378	0.000000	0.420985	-0.000000	1.985216	0.000000	21.813027	96.704129	3.336440	0.728455	0.000000	0.321310	0.000000	-0.536544	-0.000000	79.647869	536.522773	-12.682073	0.240310	0.000000	0.421072	0.000000	2.001971	0.000000
3.150000	23.234913	118.870911	2.712508	0.728887	0.000000	0.323036	0.000000	-0.411402	-0.000000	81.623550	531.682286	-11.926967	0.232639	0.000000	0.420781	-0.000000	1.951645	0.000000	22.997248	116.278019	3.089081	0.740622	0.000000	0.328760	-0.000000	-0.381659	0.000000	81.621380	531.686210	-11.926996	0.230570	0.000000	0.419359	-0.000000	1.951594	0.000000	22.571328	104.672914	3.649953	0.751650	0.000000	0.324223	0.000000	-0.456902	-0.000000	80.044758	536.073447	-12.222687	0.235261	0.000000	0.420949	-0.000000	1.976311	0.000000	22.602451	102.681909	3.091114	0.725789	0.000000	0.322968	0.000000	-0.476285	-0.000000	80.384330	535.237906	-12.560332	0.239173	0.000000	0.421035	0.000000	1.992130	0.000000
3.151000	23.114263	124.224808	2.179948	0.731717	0.000000	0.323809	0.000000	-0.415988	-0.000000	82.273054	530.205538	-11.774561	0.231518	0.000000	0.420743	-0.000000	1.938332	0.000000	23.041807	121.716824	2.567885	0.740792	0.000000	0.328190	-0.000000	-0.392309	0.000000	82.270697	530.212460	-11.775196	0.229450	0.000000	0.419320	-0.000000	1.938403	0.000000	22.888146	110.529139	3.277407	0.747838	0.000000	0.324644	0.000000	-0.475260	-0.000000	80.763661	534.736230	-12.098937	0.234146	0.000000	0.420915	-0.000000	1.966362	0.000000	23.189918	108.560147	2.764569	0.723088	0.000000	0.324531	0.000000	-0.423303	-0.000000	81.095358	533.890980	-12.425796	0.238045	0.000000	0.420998	0.000000	1.981452	0.000000
3.152000	22.840051	129.396565	1.566332	0.733581	0.000000	0.324584	0.000000	-0.415987	-0.000000	82.892387	528.657167	-11.613163	0.230400	0.000000	0.420704	-0.000000	1.923108	0.000000	22.907015	126.995965	1.958203	0.740350	0.000000	0.327823	-0.000000	-0.397728	0.000000	82.889867	528.666819	-11.614322	0.228332	0.000000	0.419282	-0.000000	1.923280	0.000000	23.047372	116.256139	2.827335	0.744041	0.000000	0.325109	0.000000	-0.486877	-0.000000	81.453635	533.334384	-11.962920	0.233034	0.000000	0.420882	-0.000000	1.954660	0.000000	23.572366	114.302011	2.355607	0.720364	0.000000	0.326004	0.000000	-0.376275	-0.000000	81.778261	532.480896	-12.280358	0.236925	0.000000	0.420962	0.000000	1.969212	-0.000000
3.153000	22.413795	134.351719	0.875152	0.734569	0.000000	0.325363	0.000000	-0.411886	-0.000000	83.482421	527.033905	-11.443778	0.229284	0.000000	0.420664	-0.000000	1.906225	0.000000	22.596564	132.075774	1.264677	0.739361	0.000000	0.327644	-0.000000	-0.398431	0.000000	83.479755	527.046044	-11.445384	0.227216	0.000000	0.419242	-0.000000	1.906483	0.000000	23.043503	121.817756	2.299774	0.740264	0.000000	0.325615	0.000000	-0.492240	-0.000000	82.113243	531.866241	-11.816348	0.231921	0.000000	0.420851	-0.000000	1.940964	0.000000	23.748778	119.872295	1.864467	0.717631	0.000000	0.327392	0.000000	-0.334446	-0.000000	82.431570	531.005863	-12.125645	0.235812	0.000000	0.420929	0.000000	1.955153	-0.000000
3.154000	21.840815	139.059839	0.111163	0.734774	0.000000	0.326145	0.000000	-0.403905	-0.000000	84.044696	525.332102	-11.267924	0.228170	0.000000	0.420623	-0.000000	1.887560	0.000000	22.117940	136.921213	0.493118	0.737893	0.000000	0.327637	-0.000000	-0.394667	0.000000	84.041897	525.346503	-11.269900	0.226102	0.000000	0.419201	-0.000000	1.887889	0.000000	22.873980	127.179665	1.696080	0.736509	0.000000	0.326158	0.000000	-0.492068	-0.000000	82.742105	530.329144	-11.660265	0.230809	0.000000	0.420819	-0.000000	1.925511	0.000000	23.720976	125.237553	1.292740	0.714905	0.000000	0.328699	0.000000	-0.297331	0.000000	83.054871	529.463108	-11.962611	0.234704	0.000000	0.420897	0.000000	1.939493	-0.000000
3.155000	21.129587	143.495619	-0.719648	0.734290	0.000000	0.326931	0.000000	-0.392046	-0.000000	84.581057	523.547933	-11.087640	0.227058	0.000000	0.420579	-0.000000	1.866534	0.000000	21.481738	141.502931	-0.349529	0.736016	0.000000	0.327787	-0.000000	-0.386474	0.000000	84.578136	523.564395	-11.089911	0.224991	0.000000	0.419157	-0.000000	1.866929	0.000000	22.539944	132.310023	1.018891	0.732784	0.000000	0.326739	0.000000	-0.487026	-0.000000	83.340810	528.719615	-11.495482	0.229696	0.000000	0.420787	-0.000000	1.908634	0.000000	23.494326	130.366761	0.643327	0.712199	0.000000	0.329931	0.000000	-0.264438	0.000000	83.648714	527.849030	-11.791974	0.233599	0.000000	0.420866	0.000000	1.922552	-0.000000
3.156000	20.290785	147.640145	-1.610257	0.733210	0.000000	0.327720	0.000000	-0.376301	-0.000000	85.093491	521.677429	-10.904847	0.225948	0.000000	0.420532	-0.000000	1.842414	0.000000	20.700690	145.798499	-1.255377	0.733796	0.000000	0.328076	-0.000000	-0.373881	0.000000	85.090459	521.695769	-10.907344	0.223881	0.000000	0.419110	-0.000000	1.842869	0.000000	22.046474	137.180491	0.272035	0.729101	0.000000	0.327354	0.000000	-0.477540	-0.000000	83.910772	527.033772	-11.323295	0.228584	0.000000	0.420753	-0.000000	1.890317	0.000000	23.077943	135.232331	-0.079665	0.709526	0.000000	0.331092	0.000000	-0.235095	0.000000	84.214470	526.159636	-11.614935	0.232496	0.000000	0.420836	0.000000	1.904297	-0.000000
3.157000	19.336431	151.481919	-2.553190	0.731625	0.000000	0.328511	0.000000	-0.356843	-0.000000	85.584272	519.716406	-10.720469	0.224838	0.000000	0.420482	-0.000000	1.814724	0.000000	19.788791	149.793399	-2.216177	0.731300	0.000000	0.328488	-0.000000	-0.357099	0.000000	85.581137	519.736463	-10.723139	0.222771	0.000000	0.419060	-0.000000	1.815236	0.000000	21.402091	141.767260	-0.539519	0.725474	0.000000	0.328001	0.000000	-0.463773	-0.000000	84.453813	525.267515	-11.145639	0.227473	0.000000	0.420717	-0.000000	1.870050	0.000000	22.484162	139.811134	-0.870976	0.706896	0.000000	0.332187	0.000000	-0.208428	0.000000	84.753913	524.390713	-11.433338	0.231394	0.000000	0.420807	0.000000	1.884203	-0.000000
3.158000	18.279410	155.017106	-3.541197	0.729616	0.000000	0.329301	0.000000	-0.334003	-0.000000	86.056400	517.660457	-10.533812	0.223726	0.000000	0.420429	-0.000000	1.783525	0.000000	18.760799	153.481237	-3.223995	0.728584	0.000000	0.329008	-0.000000	-0.336496	0.000000	86.053162	517.682094	-10.536623	0.221660	0.000000	0.419007	-0.000000	1.784082	0.000000	20.617840	146.052145	-1.409723	0.721919	0.000000	0.328678	0.000000	-0.445782	-0.000000	84.971850	523.416536	-10.964513	0.226361	0.000000	0.420677	-0.000000	1.847085	0.000000	21.727610	144.085598	-1.724260	0.704318	0.000000	0.333222	0.000000	-0.183526	0.000000	85.268916	522.537846	-11.249090	0.230293	0.000000	0.420776	0.000000	1.861507	-0.000000
3.159000	17.133275	158.248921	-4.567499	0.727259	0.000000	0.330092	0.000000	-0.308086	-0.000000	86.514123	515.504984	-10.342624	0.222613	0.000000	0.420372	-0.000000	1.749386	0.000000	17.632032	156.863088	-4.271446	0.725702	0.000000	0.329623	-0.000000	-0.312418	0.000000	86.510771	515.528080	-10.345561	0.220547	0.000000	0.418950	-0.000000	1.749976	0.000000	19.706371	150.023726	-2.331828	0.718450	0.000000	0.329380	0.000000	-0.423751	-0.000000	85.466996	521.476369	-10.781108	0.225249	0.000000	0.420632	-0.000000	1.820853	0.000000	20.824262	148.044857	-2.632475	0.701802	0.000000	0.334201	0.000000	-0.159676	0.000000	85.761542	520.596471	-11.063292	0.229193	0.000000	0.420744	0.000000	1.835630	-0.000000
3.160000	15.911913	161.186636	-5.625469	0.724624	0.000000	0.330883	0.000000	-0.279295	-0.000000	86.962896	513.245187	-10.143855	0.221500	0.000000	0.420313	-0.000000	1.713190	0.000000	16.418019	159.946473	-5.351381	0.722702	0.000000	0.330318	0.000000	-0.285105	0.000000	86.959403	513.269644	-10.146917	0.219434	0.000000	0.418891	-0.000000	1.713798	0.000000	18.681278	153.677963	-3.299058	0.715081	0.000000	0.330103	0.000000	-0.398057	-0.000000	85.942012	519.442343	-10.595115	0.224135	0.000000	0.420584	-0.000000	1.791283	0.000000	19.790784	151.685357	-3.588550	0.699359	0.000000	0.335129	0.000000	-0.136429	0.000000	86.234506	518.561822	-10.875553	0.228095	0.000000	0.420710	-0.000000	1.806486	-0.000000
3.161000	14.628947	163.844751	-6.708192	0.721774	0.000000	0.331672	0.000000	-0.247862	-0.000000	87.408496	510.876416	-9.934555	0.220387	0.000000	0.420250	-0.000000	1.675973	0.000000	15.133908	162.744488	-6.456435	0.719626	0.000000	0.331081	0.000000	-0.254828	0.000000	87.404836	510.902150	-9.937742	0.218322	0.000000	0.418828	-0.000000	1.676586	0.000000	17.556839	157.017798	-4.305067	0.711820	0.000000	0.330844	0.000000	-0.369117	-0.000000	86.400913	517.309408	-10.404627	0.223019	0.000000	0.420532	-0.000000	1.758828	0.000000	18.644263	155.010469	-4.585856	0.696999	0.000000	0.336009	0.000000	-0.113451	0.000000	86.691774	516.428763	-10.683886	0.226997	0.000000	0.420671	-0.000000	1.774519	-0.000000
3.162000	13.297290	166.242484	-7.808366	0.718770	0.000000	0.332461	0.000000	-0.214255	-0.000000	87.855918	508.394837	-9.712271	0.219277	0.000000	0.420185	-0.000000	1.638946	0.000000	13.794008	165.275255	-7.578926	0.716515	0.000000	0.331902	0.000000	-0.222087	0.000000	87.852069	508.421772	-9.715582	0.217212	0.000000	0.418763	-0.000000	1.639547	0.000000	16.347825	160.052158	-5.343814	0.708674	0.000000	0.331600	0.000000	-0.337222	-0.000000	86.849079	515.072083	-10.206779	0.221900	0.000000	0.420475	-0.000000	1.724290	0.000000	17.402019	158.029494	-5.618080	0.694733	0.000000	0.336846	0.000000	-0.090351	0.000000	87.138685	514.191733	-10.485350	0.225899	0.000000	0.420629	-0.000000	1.740522	-0.000000
